<?xml version="1.0" standalone="no"?>
<!DOCTYPE svg PUBLIC "-//W3C//DTD SVG 20010904//EN"
 "http://www.w3.org/TR/2001/REC-SVG-20010904/DTD/svg10.dtd">
<svg version="1.0" xmlns="http://www.w3.org/2000/svg"
 width="126.000000pt" height="126.000000pt" viewBox="0 0 126.000000 126.000000"
 preserveAspectRatio="xMidYMid meet">
<metadata>
Created by potrace 1.16, written by Peter Selinger 2001-2019
</metadata>
<g transform="translate(0.000000,126.000000) scale(0.100000,-0.100000)"
fill="#000000" stroke="none">
<path d="M0 630 l0 -630 630 0 630 0 0 630 0 630 -630 0 -630 0 0 -630z m650
361 c0 -102 -2 -111 -22 -125 -19 -13 -25 -14 -43 -2 -16 11 -21 26 -23 80
l-3 66 -49 0 -50 0 0 -184 0 -183 50 -6 c28 -3 55 -9 60 -12 18 -11 11 -64 -9
-75 -11 -5 -81 -10 -155 -10 -123 0 -138 2 -156 20 -38 38 -15 68 58 77 l52 6
0 183 0 184 -50 0 -50 0 0 -60 c0 -47 -4 -64 -20 -80 -11 -11 -25 -20 -30 -20
-5 0 -19 9 -30 20 -17 17 -20 33 -20 125 l0 105 245 0 245 0 0 -109z m201
-271 c21 -12 25 -50 7 -68 -7 -7 -22 -12 -35 -12 -21 0 -23 -4 -23 -60 l0 -60
90 0 90 0 0 59 c0 57 -1 59 -29 64 -37 8 -50 41 -25 68 14 15 31 19 90 19 62
0 75 -3 87 -21 18 -25 10 -60 -15 -66 -17 -5 -18 -18 -18 -169 l0 -163 27 -13
c31 -15 41 -42 23 -63 -9 -11 -36 -15 -101 -15 -79 0 -89 2 -99 21 -16 28 -6
48 30 60 29 11 30 13 30 70 l0 59 -90 0 -90 0 0 -60 c0 -59 1 -61 30 -67 34
-6 50 -43 30 -68 -18 -21 -182 -21 -200 0 -18 21 -8 48 23 63 l27 13 0 162 c0
151 -1 163 -20 175 -22 14 -27 51 -8 70 15 15 142 16 169 2z"/>
</g>
</svg>
